{"title":"Baran - Ziadi (1080p)","uid":9015124,"size":78399554,"categoryP":"video","categoryS":"music_videos","magnet":"?xt=urn:btih:1ccfef05a41137371abdf830f7a57a17f86bcafb&amp;dn=Baran+-+Ziadi+%281080p%29&amp;tr=udp%3A%2F%2Ftracker.openbittorrent.com%3A80&amp;tr=udp%3A%2F%2Fopen.demonii.com%3A1337&amp;tr=udp%3A%2F%2Ftracker.coppersurfer.tk%3A6969&amp;tr=udp%3A%2F%2Fexodus.desync.com%3A6969","seeders":1,"leechers":0,"uploader":null,"files":9,"time":1381178521,"description":"General\nComplete name : Baran - Ziadi OFFICIAL\nLanguage : Persian\nFormat : MPEG-4\nFormat profile : Base Media / Version 2\nCodec ID : mp42\nFile size : 74.2 MiB\nDuration : 3mn 3s\nOverall bit rate mode : Variable\nOverall bit rate : 3 388 Kbps\n----------------------------------------------------------\nVideo\nID : 1\nFormat : AVC\nFormat/Info : Advanced Video Codec\nFormat profile : &lt;a class=&quot;__cf_email__&quot; href=&quot;/cdn-cgi/l/email-protection&quot; data-cfemail=&quot;f0b8999798b0bcc4dec0&quot;&gt;[email&amp;#160;protected]&lt;/a&gt;&lt;script cf-hash='f9e31' type=&quot;text/javascript&quot;&gt;\n/* &lt;![CDATA[ */!function(){try{var t=&quot;currentScript&quot;in document?document.currentScript:function(){for(var t=document.getElementsByTagName(&quot;script&quot;),e=t.length;e--;)if(t[e].getAttribute(&quot;cf-hash&quot;))return t[e]}();if(t&amp;&amp;t.previousSibling){var e,r,n,i,c=t.previousSibling,a=c.getAttribute(&quot;data-cfemail&quot;);if(a){for(e=&quot;&quot;,r=parseInt(a.substr(0,2),16),n=2;a.length-n;n+=2)i=parseInt(a.substr(n,2),16)^r,e+=String.fromCharCode(i);e=document.createTextNode(e),c.parentNode.replaceChild(e,c)}}}catch(u){}}();/* ]]&gt; */&lt;/script&gt;\nFormat settings, CABAC : Yes\nFormat settings, ReFrames : 1 frame\nCodec ID : avc1\nCodec ID/Info : Advanced Video Coding\nDuration : 3mn 3s\nBit rate : 3 194 Kbps\nMaximum bit rate : 7 542 Kbps\nWidth : 1 920 pixels\nHeight : 1 080 pixels\nDisplay aspect ratio : 16:9\nFrame rate mode : Constant\nFrame rate : 23.976 fps\nColor space : YUV\nChroma subsampling : 4:2:0\nBit depth : 8 bits\nScan type : Progressive\nBits/(Pixel*Frame) : 0.064\nStream size : 70.0 MiB (94%)\n----------------------------------------------------------\nAudio\nID : 2\nFormat : AAC\nFormat/Info : Advanced Audio Codec\nFormat profile : LC\nCodec ID : 40\nDuration : 3mn 3s\nBit rate mode : Variable\nBit rate : 192 Kbps\nMaximum bit rate : 203 Kbps\nChannel count : 2 channels\nChannel positions : Front: L R\nSampling rate : 44.1 KHz\nCompression mode : Lossy\nStream size : 4.21 MiB (6%)\n----------------------------------------------------------\nLyric\nBaran - Ziadi.lrc\n----------------------------------------------------------\nTotal size : 74.7Mb\n----------------------------------------------------------\nEncoded by Eisa","torrent":{"xt":"urn:btih:1ccfef05a41137371abdf830f7a57a17f86bcafb","amp;dn":"Baran+-+Ziadi+%281080p%29","amp;tr":["udp%3A%2F%2Ftracker.openbittorrent.com%3A80","udp%3A%2F%2Fopen.demonii.com%3A1337","udp%3A%2F%2Ftracker.coppersurfer.tk%3A6969","udp%3A%2F%2Fexodus.desync.com%3A6969"],"infoHash":"1ccfef05a41137371abdf830f7a57a17f86bcafb","infoHashBuffer":{"type":"Buffer","data":[28,207,239,5,164,17,55,55,26,189,248,48,247,165,122,23,248,107,202,251]},"announce":[],"urlList":[]}}